<?xml version="1.0" encoding="UTF-8"?>
<svg width="324px" height="122px" viewBox="0 0 324 122" version="1.1" xmlns="http://www.w3.org/2000/svg" xmlns:xlink="http://www.w3.org/1999/xlink">
    <!-- Generator: Sketch 53.1 (72631) - https://sketchapp.com -->
    <title>Artboard</title>
    <desc>Created with Sketch.</desc>
    <g id="Artboard" stroke="none" stroke-width="1" fill="none" fill-rule="evenodd">
        <path d="M8.67587236,0 L16.0518753,0 L16.0518753,1.0582404 L8.67587236,1.0582404 L8.67587236,0 Z M17.7447285,0 L25.1207315,0 L25.1207315,1.0582404 L17.7447285,1.0582404 L17.7447285,0 Z M26.8135846,0 L34.1895876,0 L34.1895876,1.0582404 L26.8135846,1.0582404 L26.8135846,0 Z M63.0890091,0 L70.4650121,0 L70.4650121,1.0582404 L63.0890091,1.0582404 L63.0890091,0 Z M72.1578653,0 L79.5338683,0 L79.5338683,1.0582404 L72.1578653,1.0582404 L72.1578653,0 Z M81.2267214,0 L88.6027244,0 L88.6027244,1.0582404 L81.2267214,1.0582404 L81.2267214,0 Z M108.43329,0 L115.809293,0 L115.809293,1.0582404 L108.43329,1.0582404 L108.43329,0 Z M117.502146,0 L124.878149,0 L124.878149,1.0582404 L117.502146,1.0582404 L117.502146,0 Z M126.571002,0 L133.947005,0 L133.947005,1.0582404 L126.571002,1.0582404 L126.571002,0 Z M135.639858,0 L143.015861,0 L143.015861,1.0582404 L135.639858,1.0582404 L135.639858,0 Z M144.708714,0 L152.084717,0 L152.084717,1.0582404 L144.708714,1.0582404 L144.708714,0 Z M153.77757,0 L161.153573,0 L161.153573,1.0582404 L153.77757,1.0582404 L153.77757,0 Z M162.846427,0 L170.22243,0 L170.22243,1.0582404 L162.846427,1.0582404 L162.846427,0 Z M171.915283,0 L179.291286,0 L179.291286,1.0582404 L171.915283,1.0582404 L171.915283,0 Z M199.121851,0 L206.497854,0 L206.497854,1.0582404 L199.121851,1.0582404 L199.121851,0 Z M208.190707,0 L215.56671,0 L215.56671,1.0582404 L208.190707,1.0582404 L208.190707,0 Z M217.259563,0 L224.635566,0 L224.635566,1.0582404 L217.259563,1.0582404 L217.259563,0 Z M253.534988,0 L260.910991,0 L260.910991,1.0582404 L253.534988,1.0582404 L253.534988,0 Z M262.603844,0 L269.979847,0 L269.979847,1.0582404 L262.603844,1.0582404 L262.603844,0 Z M271.6727,0 L279.048703,0 L279.048703,1.0582404 L271.6727,1.0582404 L271.6727,0 Z M2.78111588,7.53366378 L3.80891957,7.53366378 L3.80891957,20.0813713 L2.78111588,20.0813713 L2.78111588,7.53366378 Z M15.6588916,19.7941347 L14.6613174,20.2325485 L9.06885613,7.77554729 L10.0815451,7.35225114 L15.6588916,19.7941347 Z M42.86546,19.7941347 L41.8678858,20.2325485 L36.2754245,7.77554729 L37.2881135,7.35225114 L42.86546,19.7941347 Z M57.1942527,7.53366378 L58.2220564,7.53366378 L58.2220564,20.0813713 L57.1942527,20.0813713 L57.1942527,7.53366378 Z M70.0720284,19.7941347 L69.0744542,20.2325485 L63.4819929,7.77554729 L64.4946818,7.35225114 L70.0720284,19.7941347 Z M97.2785968,19.7941347 L96.2810226,20.2325485 L90.6885613,7.77554729 L91.7012502,7.35225114 L97.2785968,19.7941347 Z M102.538533,7.53366378 L103.566337,7.53366378 L103.566337,20.0813713 L102.538533,20.0813713 L102.538533,7.53366378 Z M115.416309,19.7941347 L114.418735,20.2325485 L108.826274,7.77554729 L109.838962,7.35225114 L115.416309,19.7941347 Z M144.708714,20.1569599 L152.084717,20.1569599 L152.084717,21.2152003 L144.708714,21.2152003 L144.708714,20.1569599 Z M153.77757,20.1569599 L161.153573,20.1569599 L161.153573,21.2152003 L153.77757,21.2152003 L153.77757,20.1569599 Z M187.967158,19.7941347 L186.969584,20.2325485 L181.377123,7.77554729 L182.389812,7.35225114 L187.967158,19.7941347 Z M193.227095,7.53366378 L194.254898,7.53366378 L194.254898,20.0813713 L193.227095,20.0813713 L193.227095,7.53366378 Z M206.10487,19.7941347 L205.107296,20.2325485 L199.514835,7.77554729 L200.527524,7.35225114 L206.10487,19.7941347 Z M233.311439,19.7941347 L232.313865,20.2325485 L226.721403,7.77554729 L227.734092,7.35225114 L233.311439,19.7941347 Z M247.640231,7.53366378 L248.668035,7.53366378 L248.668035,20.0813713 L247.640231,20.0813713 L247.640231,7.53366378 Z M260.518007,19.7941347 L259.520433,20.2325485 L253.927972,7.77554729 L254.940661,7.35225114 L260.518007,19.7941347 Z M287.724575,19.7941347 L286.727001,20.2325485 L281.13454,7.77554729 L282.147229,7.35225114 L287.724575,19.7941347 Z M6.59003545,39.9510946 L5.59246128,40.3895085 L0,27.9325072 L1.01268893,27.5092111 L6.59003545,39.9510946 Z M24.7277477,39.9510946 L23.7301735,40.3895085 L18.1377123,27.9325072 L19.1504012,27.5092111 L24.7277477,39.9510946 Z M51.9343161,39.9510946 L50.9367419,40.3895085 L45.3442806,27.9325072 L46.3569696,27.5092111 L51.9343161,39.9510946 Z M61.0031722,39.9510946 L60.0055981,40.3895085 L54.4131368,27.9325072 L55.4258257,27.5092111 L61.0031722,39.9510946 Z M63.0890091,40.3139199 L70.4650121,40.3139199 L70.4650121,41.3721603 L63.0890091,41.3721603 L63.0890091,40.3139199 Z M79.1408845,39.9510946 L78.1433103,40.3895085 L72.550849,27.9325072 L73.563538,27.5092111 L79.1408845,39.9510946 Z M106.347453,39.9510946 L105.349879,40.3895085 L99.7574174,27.9325072 L100.770106,27.5092111 L106.347453,39.9510946 Z M124.485165,39.9510946 L123.487591,40.3895085 L117.89513,27.9325072 L118.907819,27.5092111 L124.485165,39.9510946 Z M151.691734,39.9510946 L150.694159,40.3895085 L145.101698,27.9325072 L146.114387,27.5092111 L151.691734,39.9510946 Z M156.95167,27.6906237 L157.979474,27.6906237 L157.979474,40.2383313 L156.95167,40.2383313 L156.95167,27.6906237 Z M169.829446,39.9510946 L168.831872,40.3895085 L163.23941,27.9325072 L164.252099,27.5092111 L169.829446,39.9510946 Z M197.036014,39.9510946 L196.03844,40.3895085 L190.445979,27.9325072 L191.458668,27.5092111 L197.036014,39.9510946 Z M215.173726,39.9510946 L214.176152,40.3895085 L208.583691,27.9325072 L209.59638,27.5092111 L215.173726,39.9510946 Z M242.380295,39.9510946 L241.382721,40.3895085 L235.790259,27.9325072 L236.802948,27.5092111 L242.380295,39.9510946 Z M251.449151,39.9510946 L250.451577,40.3895085 L244.859116,27.9325072 L245.871804,27.5092111 L251.449151,39.9510946 Z M253.534988,40.3139199 L260.910991,40.3139199 L260.910991,41.3721603 L253.534988,41.3721603 L253.534988,40.3139199 Z M269.586863,39.9510946 L268.589289,40.3895085 L262.996828,27.9325072 L264.009517,27.5092111 L269.586863,39.9510946 Z M296.793432,39.9510946 L295.795857,40.3895085 L290.203396,27.9325072 L291.216085,27.5092111 L296.793432,39.9510946 Z M15.6588916,60.1080545 L14.6613174,60.5464684 L9.06885613,48.0894672 L10.0815451,47.666171 L15.6588916,60.1080545 Z M33.7966038,60.1080545 L32.7990297,60.5464684 L27.2065684,48.0894672 L28.2192573,47.666171 L33.7966038,60.1080545 Z M35.8824408,60.4708798 L43.2584437,60.4708798 L43.2584437,61.5291202 L35.8824408,61.5291202 L35.8824408,60.4708798 Z M44.9512969,60.4708798 L52.3272999,60.4708798 L52.3272999,61.5291202 L44.9512969,61.5291202 L44.9512969,60.4708798 Z M54.020153,60.4708798 L61.396156,60.4708798 L61.396156,61.5291202 L54.020153,61.5291202 L54.020153,60.4708798 Z M63.0890091,60.4708798 L70.4650121,60.4708798 L70.4650121,61.5291202 L63.0890091,61.5291202 L63.0890091,60.4708798 Z M72.1578653,60.4708798 L79.5338683,60.4708798 L79.5338683,61.5291202 L72.1578653,61.5291202 L72.1578653,60.4708798 Z M81.2267214,60.4708798 L88.6027244,60.4708798 L88.6027244,61.5291202 L81.2267214,61.5291202 L81.2267214,60.4708798 Z M115.416309,60.1080545 L114.418735,60.5464684 L108.826274,48.0894672 L109.838962,47.666171 L115.416309,60.1080545 Z M133.554021,60.1080545 L132.556447,60.5464684 L126.963986,48.0894672 L127.976675,47.666171 L133.554021,60.1080545 Z M160.76059,60.1080545 L159.763015,60.5464684 L154.170554,48.0894672 L155.183243,47.666171 L160.76059,60.1080545 Z M169.829446,60.1080545 L168.831872,60.5464684 L163.23941,48.0894672 L164.252099,47.666171 L169.829446,60.1080545 Z M178.898302,60.1080545 L177.900728,60.5464684 L172.308266,48.0894672 L173.320955,47.666171 L178.898302,60.1080545 Z M206.10487,60.1080545 L205.107296,60.5464684 L199.514835,48.0894672 L200.527524,47.666171 L206.10487,60.1080545 Z M224.242583,60.1080545 L223.245008,60.5464684 L217.652547,48.0894672 L218.665236,47.666171 L224.242583,60.1080545 Z M226.328419,60.4708798 L233.704422,60.4708798 L233.704422,61.5291202 L226.328419,61.5291202 L226.328419,60.4708798 Z M235.397276,60.4708798 L242.773279,60.4708798 L242.773279,61.5291202 L235.397276,61.5291202 L235.397276,60.4708798 Z M244.466132,60.4708798 L251.842135,60.4708798 L251.842135,61.5291202 L244.466132,61.5291202 L244.466132,60.4708798 Z M253.534988,60.4708798 L260.910991,60.4708798 L260.910991,61.5291202 L253.534988,61.5291202 L253.534988,60.4708798 Z M262.603844,60.4708798 L269.979847,60.4708798 L269.979847,61.5291202 L262.603844,61.5291202 L262.603844,60.4708798 Z M271.6727,60.4708798 L279.048703,60.4708798 L279.048703,61.5291202 L271.6727,61.5291202 L271.6727,60.4708798 Z M305.862288,60.1080545 L304.864714,60.5464684 L299.272252,48.0894672 L300.284941,47.666171 L305.862288,60.1080545 Z M24.7277477,80.2650145 L23.7301735,80.7034283 L18.1377123,68.2464271 L19.1504012,67.8231309 L24.7277477,80.2650145 Z M29.9876843,68.0045436 L31.015488,68.0045436 L31.015488,80.5522511 L29.9876843,80.5522511 L29.9876843,68.0045436 Z M35.8824408,80.6278397 L43.2584437,80.6278397 L43.2584437,81.6860801 L35.8824408,81.6860801 L35.8824408,80.6278397 Z M44.9512969,80.6278397 L52.3272999,80.6278397 L52.3272999,81.6860801 L44.9512969,81.6860801 L44.9512969,80.6278397 Z M54.020153,80.6278397 L61.396156,80.6278397 L61.396156,81.6860801 L54.020153,81.6860801 L54.020153,80.6278397 Z M63.0890091,80.6278397 L70.4650121,80.6278397 L70.4650121,81.6860801 L63.0890091,81.6860801 L63.0890091,80.6278397 Z M72.1578653,80.6278397 L79.5338683,80.6278397 L79.5338683,81.6860801 L72.1578653,81.6860801 L72.1578653,80.6278397 Z M84.400821,68.0045436 L85.4286247,68.0045436 L85.4286247,80.5522511 L84.400821,80.5522511 L84.400821,68.0045436 Z M97.2785968,80.2650145 L96.2810226,80.7034283 L90.6885613,68.2464271 L91.7012502,67.8231309 L97.2785968,80.2650145 Z M124.485165,80.2650145 L123.487591,80.7034283 L117.89513,68.2464271 L118.907819,67.8231309 L124.485165,80.2650145 Z M142.622877,80.2650145 L141.625303,80.7034283 L136.032842,68.2464271 L137.045531,67.8231309 L142.622877,80.2650145 Z M169.829446,80.2650145 L168.831872,80.7034283 L163.23941,68.2464271 L164.252099,67.8231309 L169.829446,80.2650145 Z M178.898302,80.2650145 L177.900728,80.7034283 L172.308266,68.2464271 L173.320955,67.8231309 L178.898302,80.2650145 Z M187.967158,80.2650145 L186.969584,80.7034283 L181.377123,68.2464271 L182.389812,67.8231309 L187.967158,80.2650145 Z M215.173726,80.2650145 L214.176152,80.7034283 L208.583691,68.2464271 L209.59638,67.8231309 L215.173726,80.2650145 Z M220.433663,68.0045436 L221.461467,68.0045436 L221.461467,80.5522511 L220.433663,80.5522511 L220.433663,68.0045436 Z M226.328419,80.6278397 L233.704422,80.6278397 L233.704422,81.6860801 L226.328419,81.6860801 L226.328419,80.6278397 Z M235.397276,80.6278397 L242.773279,80.6278397 L242.773279,81.6860801 L235.397276,81.6860801 L235.397276,80.6278397 Z M244.466132,80.6278397 L251.842135,80.6278397 L251.842135,81.6860801 L244.466132,81.6860801 L244.466132,80.6278397 Z M253.534988,80.6278397 L260.910991,80.6278397 L260.910991,81.6860801 L253.534988,81.6860801 L253.534988,80.6278397 Z M262.603844,80.6278397 L269.979847,80.6278397 L269.979847,81.6860801 L262.603844,81.6860801 L262.603844,80.6278397 Z M274.8468,68.0045436 L275.874603,68.0045436 L275.874603,80.5522511 L274.8468,80.5522511 L274.8468,68.0045436 Z M287.724575,80.2650145 L286.727001,80.7034283 L281.13454,68.2464271 L282.147229,67.8231309 L287.724575,80.2650145 Z M314.931144,80.2650145 L313.93357,80.7034283 L308.341108,68.2464271 L309.353797,67.8231309 L314.931144,80.2650145 Z M88.2097406,100.421974 L87.2121664,100.860388 L81.6197052,88.403387 L82.6323941,87.9800909 L88.2097406,100.421974 Z M106.347453,100.421974 L105.349879,100.860388 L99.7574174,88.403387 L100.770106,87.9800909 L106.347453,100.421974 Z M108.43329,100.7848 L115.809293,100.7848 L115.809293,101.84304 L108.43329,101.84304 L108.43329,100.7848 Z M117.502146,100.7848 L124.878149,100.7848 L124.878149,101.84304 L117.502146,101.84304 L117.502146,100.7848 Z M133.554021,100.421974 L132.556447,100.860388 L126.963986,88.403387 L127.976675,87.9800909 L133.554021,100.421974 Z M151.691734,100.421974 L150.694159,100.860388 L145.101698,88.403387 L146.114387,87.9800909 L151.691734,100.421974 Z M153.77757,100.7848 L161.153573,100.7848 L161.153573,101.84304 L153.77757,101.84304 L153.77757,100.7848 Z M162.846427,100.7848 L170.22243,100.7848 L170.22243,101.84304 L162.846427,101.84304 L162.846427,100.7848 Z M171.915283,100.7848 L179.291286,100.7848 L179.291286,101.84304 L171.915283,101.84304 L171.915283,100.7848 Z M180.984139,100.7848 L188.360142,100.7848 L188.360142,101.84304 L180.984139,101.84304 L180.984139,100.7848 Z M190.052995,100.7848 L197.428998,100.7848 L197.428998,101.84304 L190.052995,101.84304 L190.052995,100.7848 Z M199.121851,100.7848 L206.497854,100.7848 L206.497854,101.84304 L199.121851,101.84304 L199.121851,100.7848 Z M208.190707,100.7848 L215.56671,100.7848 L215.56671,101.84304 L208.190707,101.84304 L208.190707,100.7848 Z M224.242583,100.421974 L223.245008,100.860388 L217.652547,88.403387 L218.665236,87.9800909 L224.242583,100.421974 Z M278.655719,100.421974 L277.658145,100.860388 L272.065684,88.403387 L273.078373,87.9800909 L278.655719,100.421974 Z M296.793432,100.421974 L295.795857,100.860388 L290.203396,88.403387 L291.216085,87.9800909 L296.793432,100.421974 Z M298.879269,100.7848 L306.255272,100.7848 L306.255272,101.84304 L298.879269,101.84304 L298.879269,100.7848 Z M307.948125,100.7848 L315.324128,100.7848 L315.324128,101.84304 L307.948125,101.84304 L307.948125,100.7848 Z M324,100.421974 L323.002426,100.860388 L317.409965,88.403387 L318.422653,87.9800909 L324,100.421974 Z M97.2785968,120.578934 L96.2810226,121.017348 L90.6885613,108.560347 L91.7012502,108.137051 L97.2785968,120.578934 Z M102.538533,108.318463 L103.566337,108.318463 L103.566337,120.866171 L102.538533,120.866171 L102.538533,108.318463 Z M108.43329,120.94176 L115.809293,120.94176 L115.809293,122 L108.43329,122 L108.43329,120.94176 Z M117.502146,120.94176 L124.878149,120.94176 L124.878149,122 L117.502146,122 L117.502146,120.94176 Z M129.745102,108.318463 L130.772905,108.318463 L130.772905,120.866171 L129.745102,120.866171 L129.745102,108.318463 Z M142.622877,120.578934 L141.625303,121.017348 L136.032842,108.560347 L137.045531,108.137051 L142.622877,120.578934 Z M147.882814,108.318463 L148.910618,108.318463 L148.910618,120.866171 L147.882814,120.866171 L147.882814,108.318463 Z M153.77757,120.94176 L161.153573,120.94176 L161.153573,122 L153.77757,122 L153.77757,120.94176 Z M162.846427,120.94176 L170.22243,120.94176 L170.22243,122 L162.846427,122 L162.846427,120.94176 Z M171.915283,120.94176 L179.291286,120.94176 L179.291286,122 L171.915283,122 L171.915283,120.94176 Z M180.984139,120.94176 L188.360142,120.94176 L188.360142,122 L180.984139,122 L180.984139,120.94176 Z M190.052995,120.94176 L197.428998,120.94176 L197.428998,122 L190.052995,122 L190.052995,120.94176 Z M199.121851,120.94176 L206.497854,120.94176 L206.497854,122 L199.121851,122 L199.121851,120.94176 Z M208.190707,120.94176 L215.56671,120.94176 L215.56671,122 L208.190707,122 L208.190707,120.94176 Z M220.433663,108.318463 L221.461467,108.318463 L221.461467,120.866171 L220.433663,120.866171 L220.433663,108.318463 Z M287.724575,120.578934 L286.727001,121.017348 L281.13454,108.560347 L282.147229,108.137051 L287.724575,120.578934 Z M292.984512,108.318463 L294.012316,108.318463 L294.012316,120.866171 L292.984512,120.866171 L292.984512,108.318463 Z M298.879269,120.94176 L306.255272,120.94176 L306.255272,122 L298.879269,122 L298.879269,120.94176 Z M307.948125,120.94176 L315.324128,120.94176 L315.324128,122 L307.948125,122 L307.948125,120.94176 Z M320.19108,108.318463 L321.218884,108.318463 L321.218884,120.866171 L320.19108,120.866171 L320.19108,108.318463 Z" id="____________________|\\|\\|\__\|\\|\\\\\\_\\\\|\\\\\_\\\\______\\\\\\\______\\|_____|\\\\\\\|_____|\\\\__\\_______\\\__\\|__|\|_______|\|__|" stroke="#141E3B" fill="#141E3B" fill-rule="nonzero"></path>
    </g>
</svg>