<?xml version="1.0" encoding="UTF-8"?>
<svg width="379px" height="220px" viewBox="0 0 379 220" version="1.1" xmlns="http://www.w3.org/2000/svg" xmlns:xlink="http://www.w3.org/1999/xlink">
    <!-- Generator: Sketch 53.1 (72631) - https://sketchapp.com -->
    <title>Artboard</title>
    <desc>Created with Sketch.</desc>
    <g id="Artboard" stroke="none" stroke-width="1" fill="none" fill-rule="evenodd">
        <path d="M92.0663488,185.23096 C82.6393182,197.265967 67.9728491,205 51.5,205 C23.0573354,205 0,181.942665 0,153.5 C0,125.057335 23.0573354,102 51.5,102 C51.8894976,102 52.2779853,102.004324 52.6654177,102.012926 C51.5795838,98.0262091 51,93.8307891 51,89.5 C51,63.2664744 72.2664744,42 98.5,42 C105.326234,42 111.816153,43.4399406 117.68258,46.0326472 C125.624326,19.4095721 150.295489,0 179.5,0 C208.102552,0 232.356712,18.6176838 240.805122,44.3956954 C247.11206,42.8305797 253.709034,42 260.5,42 C305.511207,42 342,78.4887929 342,123.5 C342,128.111219 341.617043,132.632994 340.881199,137.035255 C341.41787,137.011833 341.957553,137 342.5,137 C362.658393,137 379,153.341607 379,173.5 C379,193.658393 362.658393,210 342.5,210 C327.788271,210 315.10943,201.296171 309.331974,188.75701 C295.722381,198.95746 278.816846,205 260.5,205 C244.368916,205 229.332415,200.313536 216.677751,192.227864 C202.369594,209.210428 180.944817,220 157,220 C129.912271,220 106.049541,206.19214 92.0663488,185.23096 Z" id="Combined-Shape" fill="#EEF3FD"></path>
    </g>
</svg>